<?xml version="1.0" encoding="UTF-8" standalone="no"?>
<!DOCTYPE svg PUBLIC "-//W3C//DTD SVG 1.1//EN" "http://www.w3.org/Graphics/SVG/1.1/DTD/svg11.dtd">
<svg width="100%" height="100%" viewBox="0 0 96 96" version="1.1" xmlns="http://www.w3.org/2000/svg" xmlns:xlink="http://www.w3.org/1999/xlink" xml:space="preserve" style="fill-rule:evenodd;clip-rule:evenodd;stroke-linejoin:round;stroke-miterlimit:1.41421;">
    <g id="path6455" transform="matrix(1,0,0,1,268,-635.291)">
        <path d="M-268,700.156L-268,666.426C-268,639.183 -264.112,635.291 -236.897,635.291L-203.103,635.291C-175.888,635.291 -172,639.183 -172,666.426L-172,700.156C-172,727.399 -175.888,731.291 -203.103,731.291L-236.897,731.291C-264.112,731.291 -268,727.399 -268,700.156Z" style="fill:white;fill-rule:nonzero;"/>
    </g>
    <g transform="matrix(0.238834,0,0,0.236228,11.2301,15.9797)">
        <path d="M63.946,118.649C69.673,118.649 75.299,117.752 80.719,116.024L112.933,148.216L148.212,112.944L116.013,80.717C122.22,61.321 117.12,39.829 102.654,25.368C92.356,15.067 78.647,9.396 64.091,9.396C55.958,9.396 47.803,11.239 40.486,14.728C39.382,15.254 38.609,16.28 38.402,17.483C38.201,18.686 38.588,19.907 39.447,20.774L73.341,54.676C75.842,57.175 77.222,60.493 77.222,64.015C77.222,67.546 75.84,70.858 73.341,73.357C68.362,78.351 59.657,78.351 54.669,73.344L20.763,39.451C19.894,38.582 18.645,38.201 17.476,38.403C16.27,38.61 15.247,39.383 14.721,40.487C4.763,61.355 9.031,86.345 25.362,102.664C35.666,112.968 49.368,118.649 63.946,118.649Z" style="fill:rgb(210,208,208);fill-rule:nonzero;"/>
        <path d="M236.074,181.348C230.335,181.348 224.7,182.251 219.276,183.983L183.645,148.349L148.342,183.646L183.983,219.286C177.789,238.676 182.885,260.162 197.342,274.632C207.643,284.933 221.352,290.605 235.907,290.605C244.044,290.605 252.198,288.758 259.515,285.27C260.619,284.745 261.392,283.718 261.599,282.515C261.806,281.312 261.413,280.09 260.554,279.224L226.661,245.315C224.165,242.822 222.786,239.51 222.783,235.988C222.783,232.46 224.162,229.148 226.667,226.646C231.662,221.648 240.348,221.651 245.333,226.649L279.232,260.542C280.098,261.405 281.307,261.789 282.523,261.59C283.726,261.38 284.753,260.61 285.278,259.506C295.236,238.641 290.971,213.654 274.64,197.332C264.339,187.029 250.64,181.348 236.074,181.348Z" style="fill:rgb(210,208,208);fill-rule:nonzero;"/>
        <path d="M221.571,100.988C221.571,100.988 227.468,106.153 232.33,103.74C237.825,100.975 253.306,116.237 258.245,119.808C258.261,119.82 258.295,119.82 258.353,119.848L255.653,122.56C252.087,126.085 252.09,131.841 255.644,135.372C259.2,138.913 264.918,138.91 268.475,135.372L289.853,114.022C293.385,110.472 293.388,104.726 289.847,101.182C286.319,97.65 280.564,97.65 277.023,101.185L273.463,104.742C270.513,100.679 265.611,93.754 266.233,91.46C268.84,81.413 248.358,57.681 248.358,57.681C197.49,6.823 163.513,7.979 147.349,13.537C140.861,15.769 142.064,17.183 148.803,18.37C197.843,26.93 203.926,55.85 195.613,67.008C192.416,71.316 197.079,76.517 197.079,76.517L198.832,78.258L116.029,161.046C117.152,161.723 118.243,162.493 119.205,163.458L133.134,177.374C134.08,178.323 134.853,179.406 135.524,180.528L218.328,97.737L221.571,100.988Z" style="fill:rgb(210,208,208);fill-rule:nonzero;"/>
        <path d="M113.632,169.025C110.576,165.966 105.375,165.769 102.106,168.608L10.087,251.105C6.803,253.941 6.62,258.768 9.682,261.83L34.746,286.876C37.81,289.938 42.628,289.767 45.461,286.501L127.983,194.455C130.806,191.189 130.627,186.006 127.562,182.948L113.632,169.025Z" style="fill:rgb(210,208,208);fill-rule:nonzero;"/>
    </g>
    <g transform="matrix(0.238834,0,0,0.236228,11.9157,14.5831)">
        <path d="M63.946,118.649C69.673,118.649 75.299,117.752 80.719,116.024L112.933,148.216L148.212,112.944L116.013,80.717C122.22,61.321 117.12,39.829 102.654,25.368C92.356,15.067 78.647,9.396 64.091,9.396C55.958,9.396 47.803,11.239 40.486,14.728C39.382,15.254 38.609,16.28 38.402,17.483C38.201,18.686 38.588,19.907 39.447,20.774L73.341,54.676C75.842,57.175 77.222,60.493 77.222,64.015C77.222,67.546 75.84,70.858 73.341,73.357C68.362,78.351 59.657,78.351 54.669,73.344L20.763,39.451C19.894,38.582 18.645,38.201 17.476,38.403C16.27,38.61 15.247,39.383 14.721,40.487C4.763,61.355 9.031,86.345 25.362,102.664C35.666,112.968 49.368,118.649 63.946,118.649Z" style="fill:black;fill-rule:nonzero;"/>
        <path d="M236.074,181.348C230.335,181.348 224.7,182.251 219.276,183.983L183.645,148.349L148.342,183.646L183.983,219.286C177.789,238.676 182.885,260.162 197.342,274.632C207.643,284.933 221.352,290.605 235.907,290.605C244.044,290.605 252.198,288.758 259.515,285.27C260.619,284.745 261.392,283.718 261.599,282.515C261.806,281.312 261.413,280.09 260.554,279.224L226.661,245.315C224.165,242.822 222.786,239.51 222.783,235.988C222.783,232.46 224.162,229.148 226.667,226.646C231.662,221.648 240.348,221.651 245.333,226.649L279.232,260.542C280.098,261.405 281.307,261.789 282.523,261.59C283.726,261.38 284.753,260.61 285.278,259.506C295.236,238.641 290.971,213.654 274.64,197.332C264.339,187.029 250.64,181.348 236.074,181.348Z" style="fill:black;fill-rule:nonzero;"/>
        <path d="M221.571,100.988C221.571,100.988 227.468,106.153 232.33,103.74C237.825,100.975 253.306,116.237 258.245,119.808C258.261,119.82 258.295,119.82 258.353,119.848L255.653,122.56C252.087,126.085 252.09,131.841 255.644,135.372C259.2,138.913 264.918,138.91 268.475,135.372L289.853,114.022C293.385,110.472 293.388,104.726 289.847,101.182C286.319,97.65 280.564,97.65 277.023,101.185L273.463,104.742C270.513,100.679 265.611,93.754 266.233,91.46C268.84,81.413 248.358,57.681 248.358,57.681C197.49,6.823 163.513,7.979 147.349,13.537C140.861,15.769 142.064,17.183 148.803,18.37C197.843,26.93 203.926,55.85 195.613,67.008C192.416,71.316 197.079,76.517 197.079,76.517L198.832,78.258L116.029,161.046C117.152,161.723 118.243,162.493 119.205,163.458L133.134,177.374C134.08,178.323 134.853,179.406 135.524,180.528L218.328,97.737L221.571,100.988Z" style="fill:black;fill-rule:nonzero;"/>
        <path d="M113.632,169.025C110.576,165.966 105.375,165.769 102.106,168.608L10.087,251.105C6.803,253.941 6.62,258.768 9.682,261.83L34.746,286.876C37.81,289.938 42.628,289.767 45.461,286.501L127.983,194.455C130.806,191.189 130.627,186.006 127.562,182.948L113.632,169.025Z" style="fill:black;fill-rule:nonzero;"/>
    </g>
</svg>
